<?xml version="1.0" encoding="utf-8"?><svg xmlns="http://www.w3.org/2000/svg" xmlns:xlink="http://www.w3.org/1999/xlink"><symbol viewBox="0 0 21 24" id="arrows-down" xmlns="http://www.w3.org/2000/svg"><path d="M10.307 23.888c.398-.04.775-.2 1.078-.46l8.139-6.977a1.937 1.937 0 00-1.093-3.447 1.94 1.94 0 00-1.426.504l-6.88 5.899-6.88-5.9a1.94 1.94 0 00-2.78.17 1.937 1.937 0 00.26 2.774l8.14 6.977c.399.342.92.507 1.442.46zm0-13c.398-.04.775-.2 1.078-.46l8.139-6.977a1.937 1.937 0 10-2.52-2.943l-6.879 5.898L3.245.508a1.94 1.94 0 00-2.78.17 1.937 1.937 0 00.26 2.774l8.14 6.976c.399.342.92.507 1.442.46z"/></symbol><symbol viewBox="0 0 25 21" id="arrows-left" xmlns="http://www.w3.org/2000/svg"><path d="M8.778.563L.564 8.713a1.92 1.92 0 000 2.72l8.214 8.155a1.958 1.958 0 002.745 0 1.922 1.922 0 000-2.719l-4.805-4.767h15.414a2.012 2.012 0 100-4.027H6.69l4.834-4.792a1.92 1.92 0 000-2.718A1.953 1.953 0 008.778.563z"/></symbol><symbol viewBox="0 0 25 21" id="arrows-right" xmlns="http://www.w3.org/2000/svg"><path d="M15.369 19.587l8.213-8.15a1.92 1.92 0 000-2.72L15.37.563a1.958 1.958 0 00-2.746 0 1.922 1.922 0 000 2.719l4.806 4.767H2.014a2.012 2.012 0 100 4.027h15.444l-4.835 4.792a1.92 1.92 0 000 2.718 1.953 1.953 0 002.746.002z"/></symbol></svg>